<svg width="19" height="19" viewBox="0 0 19 19" fill="none" xmlns="http://www.w3.org/2000/svg">
<g clip-path="url(#clip0_4_237)">
<rect width="19" height="19" rx="2" fill="#FFB900"/>
<path d="M9.49985 7.77271V11.4518H14.6126C14.3881 12.635 13.7143 13.6368 12.7039 14.3105L15.7871 16.7028C17.5834 15.0446 18.6198 12.6092 18.6198 9.71598C18.6198 9.04236 18.5594 8.39457 18.4471 7.77281L9.49985 7.77271Z" fill="white"/>
<path d="M4.17579 11.3082L3.48042 11.8405L1.01901 13.7577C2.58219 16.8581 5.78604 19 9.49965 19C12.0646 19 14.215 18.1536 15.7869 16.7027L12.7037 14.3104C11.8573 14.8804 10.7778 15.2259 9.49965 15.2259C7.02966 15.2259 4.93109 13.5591 4.17967 11.3137L4.17579 11.3082Z" fill="white"/>
<path d="M1.01902 5.24225C0.371325 6.52038 0 7.96267 0 9.49992C0 11.0372 0.371325 12.4795 1.01902 13.7576C1.01902 13.7662 4.17998 11.3049 4.17998 11.3049C3.98998 10.7349 3.87768 10.1304 3.87768 9.49982C3.87768 8.86928 3.98998 8.26477 4.17998 7.69478L1.01902 5.24225Z" fill="white"/>
<path d="M9.49985 3.78272C10.899 3.78272 12.1426 4.26635 13.1358 5.19909L15.8562 2.47867C14.2066 0.941422 12.0649 0 9.49985 0C5.78624 0 2.58219 2.13318 1.01901 5.24228L4.17988 7.69501C4.9312 5.44953 7.02986 3.78272 9.49985 3.78272Z" fill="white"/>
</g>
<defs>
<clipPath id="clip0_4_237">
<rect width="19" height="19" rx="2" fill="white"/>
</clipPath>
</defs>
</svg>
