<svg width="20" height="19" viewBox="0 0 20 19" fill="none" xmlns="http://www.w3.org/2000/svg">
<path fill-rule="evenodd" clip-rule="evenodd" d="M10.0083 0C4.47396 0 0 4.28159 0 9.57851C0 13.8126 2.86662 17.3967 6.84338 18.6652C7.34058 18.7606 7.5227 18.4591 7.5227 18.2055C7.5227 17.9835 7.50631 17.2223 7.50631 16.4292C4.72225 17.0003 4.14249 15.2874 4.14249 15.2874C3.69508 14.1773 3.03215 13.892 3.03215 13.892C2.12092 13.3052 3.09852 13.3052 3.09852 13.3052C4.1093 13.3687 4.63969 14.2885 4.63969 14.2885C5.53432 15.7473 6.97592 15.3351 7.55588 15.0813C7.63865 14.4628 7.90394 14.0347 8.18563 13.7968C5.96514 13.5748 3.62891 12.7502 3.62891 9.07094C3.62891 8.02429 4.02634 7.16797 4.65608 6.50199C4.55672 6.26416 4.20866 5.28076 4.75564 3.96456C4.75564 3.96456 5.60069 3.71078 7.5061 4.94777C8.32188 4.7381 9.16317 4.63144 10.0083 4.63054C10.8533 4.63054 11.7148 4.74167 12.5102 4.94777C14.4159 3.71078 15.2609 3.96456 15.2609 3.96456C15.8079 5.28076 15.4596 6.26416 15.3603 6.50199C16.0066 7.16797 16.3876 8.02429 16.3876 9.07094C16.3876 12.7502 14.0514 13.5588 11.8143 13.7968C12.179 14.0981 12.4936 14.6689 12.4936 15.5729C12.4936 16.8574 12.4773 17.8883 12.4773 18.2053C12.4773 18.4591 12.6596 18.7606 13.1566 18.6654C17.1333 17.3965 20 13.8126 20 9.57851C20.0163 4.28159 15.526 0 10.0083 0Z" fill="#FFB900"/>
</svg>
